<svg xmlns="http://www.w3.org/2000/svg" viewBox="0 0 900 600" role="img" aria-label="Schedule approval visual">
  <defs>
    <radialGradient id="bg" cx="50%" cy="28%" r="76%">
      <stop offset="0" stop-color="#23322a"/>
      <stop offset="1" stop-color="#040505"/>
    </radialGradient>
    <filter id="shadow" x="-20%" y="-20%" width="140%" height="140%">
      <feDropShadow dx="0" dy="28" stdDeviation="24" flood-color="#000" flood-opacity="0.58"/>
    </filter>
  </defs>
  <rect width="900" height="600" fill="url(#bg)"/>
  <ellipse cx="450" cy="492" rx="270" ry="48" fill="#000" opacity="0.45"/>
  <g filter="url(#shadow)">
    <rect x="260" y="140" width="380" height="310" rx="34" fill="#101414" stroke="#ffffff" stroke-opacity="0.09"/>
    <rect x="260" y="140" width="380" height="72" rx="34" fill="#e66a1f" opacity="0.24"/>
    <g fill="#ffffff" opacity="0.1">
      <rect x="306" y="250" width="58" height="48" rx="12"/>
      <rect x="392" y="250" width="58" height="48" rx="12"/>
      <rect x="478" y="250" width="58" height="48" rx="12"/>
      <rect x="306" y="326" width="58" height="48" rx="12"/>
      <rect x="392" y="326" width="58" height="48" rx="12"/>
      <rect x="478" y="326" width="58" height="48" rx="12"/>
    </g>
    <circle cx="507" cy="350" r="34" fill="#e66a1f" opacity="0.86"/>
    <path d="M488 350l14 14 28-36" fill="none" stroke="#fff7ed" stroke-width="10" stroke-linecap="round" stroke-linejoin="round"/>
  </g>
  <text x="450" y="535" text-anchor="middle" fill="#fff7ed" font-family="Inter, Arial, sans-serif" font-size="34" font-weight="850">Schedule</text>
</svg>
