<svg xmlns="http://www.w3.org/2000/svg" viewBox="0 0 900 600" role="img" aria-label="Ranch prep container">
  <defs>
    <radialGradient id="bg" cx="50%" cy="30%" r="75%">
      <stop offset="0" stop-color="#22302d"/>
      <stop offset="1" stop-color="#030505"/>
    </radialGradient>
    <linearGradient id="cup" x1="20%" x2="80%" y1="10%" y2="100%">
      <stop offset="0" stop-color="#f5efe2"/>
      <stop offset="0.5" stop-color="#d8ccb6"/>
      <stop offset="1" stop-color="#9c8f78"/>
    </linearGradient>
    <filter id="shadow" x="-20%" y="-20%" width="140%" height="140%">
      <feDropShadow dx="0" dy="28" stdDeviation="22" flood-color="#000" flood-opacity="0.55"/>
    </filter>
  </defs>
  <rect width="900" height="600" fill="url(#bg)"/>
  <ellipse cx="450" cy="492" rx="290" ry="50" fill="#000" opacity="0.45"/>
  <g filter="url(#shadow)">
    <path d="M240 210c0-42 420-42 420 0l-38 228c-11 64-333 64-344 0z" fill="url(#cup)" opacity="0.94"/>
    <ellipse cx="450" cy="211" rx="210" ry="54" fill="#fbf5e8"/>
    <ellipse cx="450" cy="213" rx="172" ry="35" fill="#d8d0bf"/>
    <path d="M292 274c83 35 233 39 318 2l-21 126c-71 39-206 39-276 1z" fill="#efe6d6" opacity="0.58"/>
    <rect x="343" y="344" width="214" height="84" rx="14" fill="#111414" opacity="0.72"/>
    <text x="450" y="381" text-anchor="middle" fill="#fff7ed" font-family="Inter, Arial, sans-serif" font-size="34" font-weight="800">Ranch</text>
    <text x="450" y="410" text-anchor="middle" fill="#c8beb0" font-family="Inter, Arial, sans-serif" font-size="17" font-weight="700">8 qt prep</text>
  </g>
  <g fill="#577f4d" opacity="0.95">
    <ellipse cx="376" cy="195" rx="10" ry="4" transform="rotate(-18 376 195)"/>
    <ellipse cx="432" cy="181" rx="12" ry="4" transform="rotate(24 432 181)"/>
    <ellipse cx="492" cy="200" rx="9" ry="4" transform="rotate(-30 492 200)"/>
    <ellipse cx="544" cy="185" rx="11" ry="4" transform="rotate(14 544 185)"/>
  </g>
  <path d="M0 0h900v600H0z" fill="none" stroke="#e66a1f" stroke-opacity="0.16" stroke-width="2"/>
</svg>
